/* XPM */
static char * anki_problectix_xpm[] = {
"32 32 271 2",
"  	c None",
". 	c #525252",
"+ 	c #515151",
"@ 	c #505050",
"# 	c #4F4F4F",
"$ 	c #4D4D4D",
"% 	c #4B4B4B",
"& 	c #4A4A4A",
"* 	c #494949",
"= 	c #484848",
"- 	c #474747",
"; 	c #464646",
"> 	c #454545",
", 	c #444444",
"' 	c #424242",
") 	c #404040",
"! 	c #595959",
"~ 	c #5E5E5E",
"{ 	c #707070",
"] 	c #787878",
"^ 	c #7C7C7C",
"/ 	c #7B7B7B",
"( 	c #7A7A7A",
"_ 	c #797979",
": 	c #777777",
"< 	c #767676",
"[ 	c #757575",
"} 	c #747474",
"| 	c #737373",
"1 	c #727272",
"2 	c #6D6D6D",
"3 	c #606060",
"4 	c #636363",
"5 	c #828282",
"6 	c #808080",
"7 	c #7F7F7F",
"8 	c #7E7E7E",
"9 	c #7D7D7D",
"0 	c #6C6C6C",
"a 	c #616161",
"b 	c #898989",
"c 	c #888888",
"d 	c #868686",
"e 	c #848484",
"f 	c #818181",
"g 	c #989898",
"h 	c #656565",
"i 	c #646464",
"j 	c #8A8A8A",
"k 	c #8E8E8E",
"l 	c #8C8C8C",
"m 	c #858585",
"n 	c #838383",
"o 	c #929292",
"p 	c #A7A7A7",
"q 	c #949494",
"r 	c #C7C7C7",
"s 	c #E8E9E9",
"t 	c #6E6E6E",
"u 	c #696969",
"v 	c #959595",
"w 	c #939393",
"x 	c #919191",
"y 	c #8F8F8F",
"z 	c #999999",
"A 	c #F4F4F7",
"B 	c #E2D9E0",
"C 	c #E6EBF2",
"D 	c #CFBECA",
"E 	c #DDCED5",
"F 	c #A5A5A5",
"G 	c #575757",
"H 	c #979797",
"I 	c #969696",
"J 	c #8D8D8D",
"K 	c #8B8B8B",
"L 	c #878787",
"M 	c #E5E9EF",
"N 	c #E69292",
"O 	c #D9858A",
"P 	c #D2777F",
"Q 	c #E2AFB2",
"R 	c #CBC3C3",
"S 	c #5B5B5B",
"T 	c #9E9E9E",
"U 	c #9C9C9C",
"V 	c #9B9B9B",
"W 	c #E5E7E8",
"X 	c #DDBEC3",
"Y 	c #E37070",
"Z 	c #E03737",
"` 	c #D8989E",
" .	c #E5D6DB",
"..	c #D6D7D7",
"+.	c #5F5F5F",
"@.	c #A2A2A2",
"#.	c #A0A0A0",
"$.	c #9F9F9F",
"%.	c #9D9D9D",
"&.	c #9A9A9A",
"*.	c #B5B5B5",
"=.	c #E8F3FA",
"-.	c #DDBEC2",
";.	c #D78389",
">.	c #DD7577",
",.	c #E4AEB0",
"'.	c #E8E9EF",
").	c #E7E7E7",
"!.	c #626262",
"~.	c #909090",
"{.	c #A1A1A1",
"].	c #D8D8D8",
"^.	c #EFF2F3",
"/.	c #EADDDE",
"(.	c #E7C3C4",
"_.	c #DFB5B9",
":.	c #EDDDDD",
"<.	c #B6B6B6",
"[.	c #666666",
"}.	c #010101",
"|.	c #686868",
"1.	c #A9A9A9",
"2.	c #B0B0B0",
"3.	c #E8E8E8",
"4.	c #F4EFF1",
"5.	c #D7D7D7",
"6.	c #6A6A6A",
"7.	c #000000",
"8.	c #5D5D5D",
"9.	c #585858",
"0.	c #A8A8A8",
"a.	c #E1E1E1",
"b.	c #ACACAC",
"c.	c #5A5A5A",
"d.	c #717171",
"e.	c #EEF0F1",
"f.	c #CCCCCC",
"g.	c #565656",
"h.	c #676767",
"i.	c #C9C9C9",
"j.	c #DBBFC5",
"k.	c #DDE1EA",
"l.	c #ADADAD",
"m.	c #6F6F6F",
"n.	c #ECF3F7",
"o.	c #CC8E99",
"p.	c #BD6B7B",
"q.	c #E6CCCE",
"r.	c #DFCBD1",
"s.	c #B87F90",
"t.	c #AE7085",
"u.	c #C3B3C2",
"v.	c #E4DFDF",
"w.	c #C2C2C2",
"x.	c #C0C0C0",
"y.	c #C8C8C8",
"z.	c #ECE5E6",
"A.	c #CFC0CA",
"B.	c #CC3239",
"C.	c #D02D33",
"D.	c #C4545F",
"E.	c #D0AFB8",
"F.	c #D1BEC7",
"G.	c #CEBFCA",
"H.	c #CAC1CE",
"I.	c #F0F8FD",
"J.	c #5C5C5C",
"K.	c #B1B0B0",
"L.	c #EBE3E3",
"M.	c #ECEAEE",
"N.	c #D8C8D0",
"O.	c #C8BFCD",
"P.	c #C06876",
"Q.	c #CD323A",
"R.	c #D52A2F",
"S.	c #C2424E",
"T.	c #BD3E4B",
"U.	c #C63641",
"V.	c #9A506B",
"W.	c #D75054",
"X.	c #E9EFF3",
"Y.	c #171717",
"Z.	c #DAD2D2",
"`.	c #E2CCD1",
" +	c #C6AAB8",
".+	c #C8A3AF",
"++	c #D57A80",
"@+	c #B57A8C",
"#+	c #BD4553",
"$+	c #CF323A",
"%+	c #9E5570",
"&+	c #9B506D",
"*+	c #C93640",
"=+	c #B68699",
"-+	c #E2B9BD",
";+	c #A5A6A6",
">+	c #4C4C4C",
",+	c #0F0F0F",
"'+	c #E5BBBB",
")+	c #CDB8C2",
"!+	c #BD8C9D",
"~+	c #D56A70",
"{+	c #B3586C",
"]+	c #C63F4B",
"^+	c #C04250",
"/+	c #D4393E",
"(+	c #C95E68",
"_+	c #E2B2B4",
":+	c #E2BEBE",
"<+	c #101010",
"[+	c #C8C7C7",
"}+	c #EDE2E5",
"|+	c #D5C6CF",
"1+	c #C68B98",
"2+	c #D36066",
"3+	c #C36B79",
"4+	c #CE5D66",
"5+	c #B85667",
"6+	c #B58194",
"7+	c #EEDEDF",
"8+	c #6B6B6B",
"9+	c #D1D0D0",
"0+	c #E2E7EF",
"a+	c #D99BA0",
"b+	c #DA7A7E",
"c+	c #D97377",
"d+	c #C37E8B",
"e+	c #CB7D88",
"f+	c #B394A9",
"g+	c #E6B8B8",
"h+	c #B9B9B9",
"i+	c #545454",
"j+	c #111111",
"k+	c #C5C5C5",
"l+	c #E7F4FC",
"m+	c #DDBCC1",
"n+	c #DDAEB3",
"o+	c #C7B9C8",
"p+	c #CDB8C4",
"q+	c #C6BDCA",
"r+	c #C5A7B5",
"s+	c #D4BCC5",
"t+	c #E9EAEA",
"u+	c #CACACA",
"v+	c #ECF6FC",
"w+	c #E7BABA",
"x+	c #DCC9D0",
"y+	c #EDE7EB",
"z+	c #F7F5F7",
"A+	c #E4F2FB",
"B+	c #DDC0C5",
"C+	c #DFBCC0",
"D+	c #EFEBEF",
"E+	c #121212",
"F+	c #CFCFCF",
"G+	c #F5FAFD",
"H+	c #EFF7FC",
"I+	c #F3F3F4",
"J+	c #D9D1D1",
"K+	c #EFEEEE",
"L+	c #F1F1F1",
"M+	c #0D0D0D",
"N+	c #BFBFBF",
"O+	c #FDFEFE",
"P+	c #EBEBEB",
"Q+	c #AEAEAE",
"R+	c #040404",
"S+	c #1B1B1B",
"T+	c #A3A3A3",
"U+	c #0E0E0E",
"V+	c #020202",
"                                                                ",
"                . + @ # $ $ % & * = - ; > , ' ' )               ",
"            ! ~ { ] ^ / ( _ _ ] : < [ } | | 1 2 3 $ '           ",
"            4 / 5 6 7 8 9 ^ / ( ( _ ] : < [ } } | 0 %           ",
"          a ^ b c d e 5 f 6 7 8 9 ^ / ( _ 9 g f < [ h &         ",
"          i j k l j c d m n 5 f 6 o p q j r s g _ ] t +         ",
"          u v w x y k l j b d m n z A B C D E F ^ / } G         ",
"          0 z H I q o x y J K b L j M N O P Q R 6 8 < S         ",
"          { T U V z H I q o x y J y W X Y Z `  ...o ( +.        ",
"          } @.#.$.%.U &.g H v w x *.=.-.;.>.,.'.).T 9 !.        ",
"          @ ~.o g T {.$.%.U &.g %.].^./.(._.:.<.K L 6 [.        ",
"          }.+.!.|.2 ] c T #.T U %.1.2.2.3.4.5.o J K e 6.        ",
"          7.3 ~ 8.S ! 9.S t L w T T %.V 0.a.b.q w x b t         ",
"          7.4 !.3 +.8.S c.d.! a { e U $.%.0.V g H v J 1         ",
"          7.[.h 4 !.3 +.~.e.f.0 G g.! } w T $.%.U &.o <         ",
"          7.6.|.h.h 4 !.i.j.k.l.c.! G g.3 [ &.@.#.$.I (         ",
"          7.2 0 6.u h.m.n.o.p.q.m 8.c.! G g.! 1 w {.V 8         ",
"          7.{ m.2 0 6.z r.s.t.u.v.w.x.x.b.m.G g.~ : V 5         ",
"          7.} [ J T y.z.A.B.C.D.E.F.G.H.I.*.S c.9.G G J.        ",
"          7./ K.L.M.N.O.P.Q.R.S.T.U.V.W.X.~.~ 8.S c.* Y.        ",
"          7.d Z.`. +.+++@+#+$+%+&+*+=+-+;+h !.3 ~ 8.>+,+        ",
"          7.8 &.L.'+)+!+~+{+]+^+/+(+_+:+2 h.h i !.3 # <+        ",
"          7.f 6 K [+}+|+1+2+3+4+5+6+7+z 8+6.|.h.h i . <+        ",
"          7.e n f m 9+0+a+b+c+d+e+f+g+h+m.2 8+6.|.h.i+j+        ",
"          7.c L m e k+l+m+n+o+p+q+r+s+t+} d.m.t 0 8+9.j+        ",
"          7.K j c L u+v+w+x+y+z+A+B+C+D+b } 1 d.m.t c.E+        ",
"          7.7 J l j F+G+H+I+h+~.*.J+K+L+L ] < } | d.G M+        ",
"          7.a x y J N+O+P+Q+d e 5 L V V 8 / _ ] < [ & R+        ",
"            S+[ o x H T+y K b c d e n f 6 8 ^ / _ h.U+          ",
"            V+S+4 n o x y k l K b c d m n 5 7 | $ S+7.          ",
"                7.7.7.7.7.7.7.7.7.7.7.7.7.7.7.7.7.              ",
"                                                                "};
